<?xml version="1.0" standalone="no"?>
<!DOCTYPE svg PUBLIC "-//W3C//DTD SVG 20010904//EN"
 "http://www.w3.org/TR/2001/REC-SVG-20010904/DTD/svg10.dtd">
<svg version="1.0" xmlns="http://www.w3.org/2000/svg"
 width="100.000000pt" height="100.000000pt" viewBox="0 0 100.000000 100.000000"
 preserveAspectRatio="xMidYMid meet">

<g transform="translate(0.000000,100.000000) scale(0.100000,-0.100000)"
fill="#000000" stroke="none">
<path d="M378 824 c-177 -42 -298 -181 -285 -325 6 -68 26 -111 80 -166 39
-41 40 -43 34 -98 -3 -31 -13 -67 -21 -80 -23 -36 -21 -38 33 -32 55 7 116 34
145 65 16 19 26 20 100 15 150 -10 277 37 366 134 110 120 105 269 -14 381
-29 27 -71 59 -94 71 -94 48 -233 62 -344 35z m224 -15 c118 -25 213 -92 257
-181 41 -81 41 -135 0 -216 -64 -128 -226 -204 -406 -188 -75 6 -75 6 -115
-28 -34 -30 -115 -62 -126 -51 -3 2 1 18 7 36 6 18 11 52 11 75 0 38 -6 50
-38 82 -48 48 -74 104 -80 170 -4 44 0 63 27 117 72 146 270 225 463 184z"/>
<path d="M380 774 c-137 -37 -240 -145 -240 -254 0 -44 20 -99 46 -127 l25
-28 -25 40 c-52 83 -44 181 23 256 107 122 322 155 484 73 59 -29 73 -27 19 4
-89 50 -225 65 -332 36z"/>
<path d="M440 677 c-32 -16 -39 -47 -11 -47 11 0 23 5 26 10 11 18 73 12 85
-9 16 -30 13 -38 -30 -85 -29 -31 -40 -52 -40 -75 0 -24 4 -31 20 -31 15 0 20
7 20 26 0 17 14 42 40 70 55 59 54 111 -1 139 -34 18 -76 19 -109 2z"/>
<path d="M810 649 c0 -3 7 -20 16 -37 80 -162 -57 -324 -297 -352 l-74 -9 75
4 c108 5 180 35 251 104 65 63 85 115 75 190 -5 35 -45 123 -46 100z"/>
<path d="M464 385 c-10 -24 12 -42 34 -29 24 16 21 38 -6 42 -13 2 -25 -3 -28
-13z"/>
</g>
</svg>
