<?xml version="1.0" standalone="no"?>
<!DOCTYPE svg PUBLIC "-//W3C//DTD SVG 20010904//EN"
 "http://www.w3.org/TR/2001/REC-SVG-20010904/DTD/svg10.dtd">
<svg version="1.0" xmlns="http://www.w3.org/2000/svg"
 width="256.000000pt" height="256.000000pt" viewBox="0 0 256.000000 256.000000"
 preserveAspectRatio="xMidYMid meet">

<g transform="translate(0.000000,256.000000) scale(0.100000,-0.100000)"
fill="#000" stroke="none">
<path d="M1326 2510 c-21 -6 -60 -21 -86 -34 -46 -23 -50 -24 -92 -9 -55 19
-150 12 -212 -17 -65 -31 -128 -104 -182 -211 -30 -60 -72 -123 -117 -174 -38
-44 -84 -109 -101 -145 -30 -63 -31 -70 -37 -245 -6 -172 -7 -183 -36 -250
-56 -131 -74 -251 -51 -342 16 -63 87 -137 148 -153 53 -15 196 -8 255 12 35
11 40 17 40 43 0 34 10 33 -165 20 -81 -5 -100 -4 -130 12 -43 22 -80 91 -80
149 0 53 31 173 66 254 25 60 28 78 33 240 6 165 8 178 33 230 16 30 59 92 97
137 41 49 91 123 121 183 34 65 65 112 91 133 67 58 155 72 224 37 50 -26 60
-25 98 4 70 53 201 70 292 39 75 -25 130 -88 196 -223 38 -76 76 -137 114
-180 119 -136 137 -186 133 -381 -3 -133 -3 -135 31 -214 87 -204 92 -325 16
-395 -23 -22 -37 -25 -117 -29 -52 -2 -108 2 -134 9 -51 14 -77 2 -72 -34 6
-45 211 -73 305 -42 158 52 194 234 96 481 -36 88 -36 93 -42 270 -6 171 -8
183 -34 236 -16 30 -62 95 -103 144 -48 57 -94 126 -129 195 -95 185 -182 250
-344 256 -47 2 -103 -1 -125 -6z"/>
<path d="M1037 2140 c-34 -27 -58 -73 -87 -170 -42 -140 -75 -183 -160 -205
-65 -17 -87 -37 -101 -89 -27 -98 12 -235 78 -281 29 -19 42 -40 67 -107 34
-89 53 -122 124 -206 l44 -52 -4 -90 c-3 -86 -4 -90 -38 -125 -42 -44 -117
-83 -300 -155 -163 -65 -242 -108 -326 -177 -113 -94 -185 -212 -207 -339 -12
-70 -5 -96 27 -102 26 -6 46 17 46 53 0 59 39 161 84 223 77 104 187 181 359
251 l94 39 42 -64 c110 -168 329 -275 535 -261 195 12 392 127 480 279 11 21
27 38 34 38 7 0 51 -16 98 -35 161 -65 303 -170 369 -275 33 -52 65 -148 65
-195 0 -36 20 -59 46 -53 32 6 39 32 27 104 -17 97 -70 198 -146 276 -104 107
-200 165 -400 242 -124 48 -225 96 -270 130 -45 33 -57 66 -57 156 l0 82 44
51 c59 70 99 139 127 217 17 51 33 75 70 108 54 48 79 109 79 193 0 104 -25
145 -102 166 -60 16 -117 69 -212 197 -89 120 -151 182 -191 192 -14 3 -52 3
-83 0 -70 -9 -91 -9 -167 -1 -52 6 -64 4 -88 -15z m141 -81 c41 -20 47 -21 71
-7 82 48 114 31 231 -122 133 -175 180 -215 292 -253 21 -7 32 -64 24 -122 -8
-50 -48 -105 -76 -105 -24 0 -34 -16 -50 -75 -37 -139 -138 -274 -253 -336
-55 -30 -71 -34 -137 -34 -66 0 -82 4 -138 34 -116 63 -210 188 -252 335 -9
33 -24 63 -33 68 -9 4 -25 12 -34 16 -33 16 -55 58 -60 119 -7 77 4 96 65 111
95 25 148 94 203 265 44 134 62 147 147 106z m81 -1137 c62 -4 104 5 204 43
15 6 17 0 17 -54 0 -107 45 -165 185 -237 38 -20 72 -38 74 -40 9 -7 -43 -75
-97 -126 -96 -92 -233 -148 -362 -148 -123 0 -263 55 -353 138 -48 45 -107
118 -107 132 0 4 34 24 75 44 87 43 160 111 175 164 5 20 10 60 10 89 l0 52
57 -26 c35 -16 81 -28 122 -31z"/>
</g>
</svg>
