<?xml version="1.0" standalone="no"?>
<!DOCTYPE svg PUBLIC "-//W3C//DTD SVG 20010904//EN"
 "http://www.w3.org/TR/2001/REC-SVG-20010904/DTD/svg10.dtd">
<svg version="1.0" xmlns="http://www.w3.org/2000/svg"
 width="256.000000pt" height="256.000000pt" viewBox="0 0 256.000000 256.000000"
 preserveAspectRatio="xMidYMid meet">

<g transform="translate(0.000000,256.000000) scale(0.100000,-0.100000)"
fill="#000000" stroke="none">
<path d="M1145 2545 c-110 -24 -219 -83 -312 -168 -44 -40 -52 -64 -31 -85 21
-21 39 -13 97 41 109 101 231 147 386 147 148 0 283 -53 384 -153 124 -121
170 -231 178 -429 l6 -128 -40 0 c-21 0 -44 -5 -51 -12 -8 -8 -12 -46 -12
-103 l0 -90 -53 90 c-57 96 -83 114 -109 76 -14 -20 -15 -20 -40 7 -14 15 -35
46 -47 70 -26 50 -65 59 -81 18 -24 -63 -109 -131 -192 -154 -40 -11 -42 -9
-29 23 10 24 -4 55 -24 55 -8 0 -48 -13 -89 -30 -41 -16 -105 -35 -143 -41
-78 -14 -88 -20 -113 -68 l-19 -36 -1 86 c0 52 -5 90 -12 97 -7 7 -30 12 -51
12 l-40 0 5 123 c4 96 11 138 31 199 27 78 27 102 1 112 -24 9 -42 -4 -58 -43
-34 -85 -46 -160 -46 -280 0 -115 -1 -121 -23 -136 -38 -24 -47 -58 -47 -173
0 -118 8 -140 60 -167 16 -8 46 -15 68 -15 l38 0 14 -66 c26 -134 126 -281
240 -354 l50 -32 0 -57 0 -57 -64 -31 c-35 -18 -103 -41 -150 -52 -174 -41
-278 -116 -342 -246 -44 -89 -59 -200 -29 -211 30 -12 48 10 61 73 7 33 23 82
37 109 27 53 104 132 154 158 24 12 170 56 187 56 2 0 13 -30 25 -67 43 -141
105 -213 184 -213 49 0 71 12 130 68 l47 46 48 -46 c58 -56 80 -68 129 -68 79
0 141 72 184 212 12 38 24 68 28 68 18 0 157 -43 184 -56 50 -26 127 -105 154
-158 14 -27 30 -76 37 -109 13 -63 31 -85 61 -73 30 11 15 122 -29 211 -64
129 -165 202 -336 244 -47 12 -115 36 -152 53 l-68 32 0 57 c0 57 0 57 43 82
126 74 230 231 252 382 7 45 8 45 47 45 21 0 52 7 68 15 52 27 60 49 60 167 0
114 -9 149 -45 172 -22 14 -23 23 -27 163 -5 172 -22 233 -94 350 -140 226
-421 345 -679 288z m409 -909 c21 -14 48 -26 60 -26 17 0 35 -23 79 -100 l58
-99 -11 -63 c-57 -315 -402 -482 -684 -330 -115 62 -214 203 -236 337 -10 59
-9 59 39 149 48 88 50 91 91 98 23 4 50 10 60 13 12 4 19 -1 23 -15 4 -17 13
-20 66 -20 122 0 235 39 311 108 l45 41 30 -34 c17 -19 48 -45 69 -59z m-816
-58 c-3 -109 -4 -113 -26 -116 -13 -2 -34 4 -48 12 -22 15 -24 22 -24 104 0
100 7 112 62 112 l39 0 -3 -112z m1170 100 c8 -8 12 -45 12 -100 0 -82 -2 -89
-24 -104 -14 -8 -35 -14 -48 -12 -22 3 -23 7 -26 116 l-3 112 39 0 c21 0 43
-5 50 -12z m-628 -791 c47 0 102 5 123 11 l37 10 0 -97 c0 -107 -13 -141 -73
-185 -40 -29 -134 -29 -174 0 -60 44 -73 78 -73 185 l0 97 38 -10 c20 -6 75
-11 122 -11z m-230 -185 c15 -56 63 -118 111 -143 l41 -21 -33 -28 c-19 -16
-42 -32 -52 -35 -42 -15 -96 57 -131 174 -9 30 -15 55 -13 56 3 3 61 34 64 35
1 0 7 -17 13 -38z m537 3 c2 -1 -4 -26 -13 -56 -35 -117 -89 -189 -131 -174
-10 3 -33 19 -52 35 l-33 28 41 21 c48 25 96 87 111 143 l11 38 32 -16 c18 -9
33 -17 34 -19z"/>
<path d="M1478 259 c-15 -8 -18 -25 -18 -99 l0 -90 -475 0 -475 0 0 43 c0 62
-30 86 -64 51 -19 -18 -22 -114 -6 -145 10 -19 30 -19 840 -19 810 0 830 0
840 19 16 31 13 127 -6 145 -34 35 -64 11 -64 -51 l0 -43 -135 0 -135 0 0 84
c0 116 0 116 -158 116 -70 0 -135 -5 -144 -11z m222 -129 l0 -61 -82 3 -83 3
-3 58 -3 57 86 0 85 0 0 -60z"/>
</g>
</svg>
