<?xml version="1.0" standalone="no"?>
<!DOCTYPE svg PUBLIC "-//W3C//DTD SVG 20010904//EN"
 "http://www.w3.org/TR/2001/REC-SVG-20010904/DTD/svg10.dtd">
<svg version="1.0" xmlns="http://www.w3.org/2000/svg"
 width="256.000000pt" height="256.000000pt" viewBox="0 0 256.000000 256.000000"
 preserveAspectRatio="xMidYMid meet">

<g transform="translate(0.000000,256.000000) scale(0.100000,-0.100000)"
fill="#000000" stroke="none">
<path d="M615 2546 c-131 -32 -247 -113 -317 -220 -50 -78 -75 -160 -83 -277
-3 -52 -11 -115 -17 -140 -15 -62 10 -115 68 -147 39 -21 42 -26 48 -76 11
-81 64 -182 127 -242 30 -28 65 -56 77 -63 16 -9 22 -21 22 -46 0 -31 -5 -37
-47 -59 -27 -13 -92 -35 -145 -50 -139 -37 -198 -78 -237 -166 -25 -56 -116
-848 -106 -918 7 -50 53 -108 102 -128 23 -10 85 -14 221 -14 195 0 212 3 212
42 0 25 -39 38 -115 38 l-63 0 4 37 c2 21 11 181 20 357 14 284 14 320 1 334
-37 36 -67 -14 -67 -110 l0 -61 -93 8 c-50 4 -94 9 -96 11 -6 5 29 302 41 351
19 78 101 132 239 158 35 6 37 5 94 -70 77 -100 106 -114 160 -79 l25 16 0
-95 c0 -102 10 -125 50 -112 18 6 20 14 20 106 0 98 6 113 30 84 24 -28 70
-18 110 24 l37 39 -5 -72 c-3 -45 -10 -78 -21 -89 -21 -25 -20 -87 2 -121 10
-15 33 -34 50 -42 26 -12 37 -28 51 -67 13 -37 34 -67 72 -104 68 -64 70 -88
12 -103 -213 -56 -238 -80 -257 -255 -18 -156 -11 -145 -84 -145 -79 0 -105
-7 -112 -32 -16 -49 -26 -48 624 -48 634 0 631 0 631 42 0 24 -38 38 -105 38
-63 0 -58 -10 -75 143 -12 111 -24 141 -75 185 -32 29 -64 41 -182 72 -59 15
-57 39 11 103 38 37 59 67 72 104 14 39 25 55 51 67 45 21 68 61 66 112 -1 40
1 44 32 54 18 6 57 28 87 49 l53 39 30 -25 c40 -33 91 -59 143 -73 102 -27
174 44 196 193 7 43 10 47 28 41 88 -27 138 -70 155 -130 12 -42 48 -352 42
-358 -2 -2 -46 -7 -96 -11 l-93 -8 0 76 c0 55 -4 80 -16 91 -19 19 -25 20 -47
3 -17 -12 -17 -29 -3 -302 9 -160 18 -320 21 -357 l5 -68 -72 0 c-90 0 -116
-7 -123 -32 -15 -44 5 -48 217 -48 144 0 207 4 231 14 49 20 95 78 102 128 6
42 -63 718 -86 843 -14 76 -38 124 -85 165 -48 42 -75 53 -228 91 -69 17 -126
35 -126 40 0 5 55 9 123 9 132 0 159 8 177 56 5 13 17 153 25 310 15 252 15
288 2 301 -9 9 -23 12 -35 9 -24 -8 -26 -28 -43 -356 -7 -124 -16 -231 -22
-237 -7 -9 -44 -13 -126 -13 -112 1 -115 1 -92 18 105 76 171 163 196 257 17
66 20 207 5 235 -12 22 -60 40 -107 40 -105 0 -262 71 -360 164 -86 80 -105
83 -170 26 -25 -22 -72 -50 -104 -61 -32 -12 -64 -28 -70 -35 -7 -9 -10 -72
-7 -191 l3 -179 34 -68 c33 -68 123 -169 162 -181 10 -4 19 -11 19 -16 0 -12
-227 -12 -235 1 -11 19 -41 605 -35 680 14 147 58 237 135 271 25 11 67 42 93
68 73 73 138 94 273 89 90 -4 115 -9 162 -31 108 -54 200 -166 243 -297 22
-67 40 -88 68 -77 22 9 21 54 -5 129 -37 110 -115 209 -221 279 -172 115 -440
100 -570 -33 -24 -24 -58 -50 -76 -57 -47 -20 -118 -103 -142 -169 -41 -108
-45 -191 -26 -523 9 -167 19 -316 22 -330 5 -26 4 -26 -65 -33 -75 -7 -143
-31 -194 -70 l-32 -25 -58 26 c-56 25 -57 27 -57 67 0 38 4 44 50 75 87 59
154 170 166 277 6 51 10 56 45 75 51 25 74 62 72 113 -5 128 -25 282 -43 332
-88 251 -349 400 -595 340z m235 -83 c168 -46 295 -205 307 -383 l6 -79 -31 9
c-17 4 -35 11 -40 14 -11 7 -27 47 -42 102 -5 23 -17 47 -26 55 -12 9 -82 13
-297 13 -275 1 -283 1 -304 -20 -12 -13 -24 -41 -28 -68 -9 -57 -35 -92 -75
-98 -30 -4 -30 -4 -30 42 0 184 127 356 307 414 83 26 154 26 253 -1z m-115
-348 c61 0 138 3 173 7 46 6 64 5 67 -5 2 -6 9 -31 15 -55 6 -24 27 -61 47
-83 l36 -39 -5 -139 c-4 -132 -6 -142 -36 -204 -38 -76 -92 -129 -171 -165
-46 -22 -70 -26 -136 -26 -101 0 -174 31 -244 103 -72 74 -92 134 -99 298 l-5
132 36 40 c20 22 41 59 48 83 6 24 13 49 15 56 3 9 21 10 76 5 40 -5 123 -8
183 -8z m1099 -184 c77 -46 167 -77 266 -92 l83 -12 -6 -77 c-12 -152 -81
-261 -202 -317 -84 -39 -195 -39 -275 -1 -81 38 -134 89 -172 166 -32 65 -33
71 -37 213 l-3 147 48 16 c27 9 69 32 93 51 l43 35 53 -48 c30 -26 79 -62 109
-81z m-1524 -58 c0 -55 0 -56 -20 -38 -24 22 -26 52 -3 77 9 10 18 18 20 18 1
0 3 -25 3 -57z m873 18 c5 -20 -17 -61 -34 -61 -5 0 -9 23 -9 50 0 46 2 50 19
41 10 -6 21 -19 24 -30z m-343 -581 c0 -18 -17 -40 -59 -77 l-58 -52 -56 57
c-32 32 -57 66 -57 77 0 19 7 20 115 20 l115 0 0 -25z m1110 -22 c0 -53 24
-88 60 -88 29 0 25 -16 -13 -44 -78 -60 -183 -73 -267 -35 -68 31 -114 79 -75
79 9 0 27 11 40 25 19 18 25 35 25 67 l0 43 115 0 115 0 0 -47z m-310 -7 c0
-9 -76 -31 -108 -31 -11 0 -30 9 -43 20 l-24 19 88 1 c48 0 87 -4 87 -9z
m-250 -42 c88 -40 160 -139 160 -221 l0 -37 -33 19 c-19 11 -48 38 -66 60 -19
23 -41 40 -53 40 -11 0 -38 -20 -62 -45 -60 -65 -97 -77 -226 -73 l-108 3 5
30 c15 90 46 143 108 191 75 57 192 71 275 33z m-461 -35 c4 -4 -77 -112 -91
-120 -5 -4 -20 4 -34 17 l-24 23 51 52 c46 46 55 52 73 42 12 -6 23 -12 25
-14z m-307 -31 l48 -47 -22 -23 c-12 -13 -25 -23 -29 -23 -4 0 -29 27 -55 61
-37 48 -44 63 -33 70 26 16 43 9 91 -38z m1506 -63 c-12 -92 -37 -130 -84
-130 -20 0 -114 41 -114 49 0 3 22 16 50 29 27 12 69 43 92 67 59 60 66 58 56
-15z m-419 -62 l35 -14 -35 -21 c-69 -42 -74 -40 -85 26 l-10 60 31 -19 c16
-10 45 -24 64 -32z m-295 -63 c3 -9 21 -25 41 -36 l35 -21 0 -91 c0 -111 -18
-157 -80 -210 -99 -85 -254 -54 -316 63 -20 37 -24 59 -24 132 l0 87 53 -6
c79 -8 156 12 219 57 61 44 64 45 72 25z m-427 -142 c-4 -17 -4 -17 -12 0 -4
9 -4 25 0 35 8 16 8 16 12 0 3 -10 3 -26 0 -35z m603 17 c0 -10 -4 -22 -10
-25 -6 -4 -10 7 -10 25 0 18 4 29 10 25 6 -3 10 -15 10 -25z m-1331 -296 l54
-6 -6 -107 c-4 -58 -10 -166 -13 -239 l-7 -132 -77 0 c-70 0 -80 2 -104 26
-32 32 -33 61 -11 267 24 225 19 210 68 204 23 -3 66 -9 96 -13z m2185 -16
c13 -77 36 -312 36 -363 0 -46 -4 -60 -25 -80 -22 -22 -32 -25 -105 -25 l-80
0 0 33 c0 17 -5 123 -11 235 -6 112 -10 205 -7 207 4 5 121 21 165 24 18 1 23
-6 27 -31z m-1101 -68 c2 -14 7 -33 11 -42 11 -25 -60 -43 -115 -28 -33 9 -39
15 -33 28 4 9 9 28 11 42 4 23 9 25 63 25 55 1 59 -1 63 -25z m-200 -104 c84
-62 191 -61 275 1 27 20 40 24 70 18 63 -11 120 -41 135 -72 12 -22 37 -182
37 -232 0 -6 -21 -11 -50 -11 l-50 0 0 43 c0 46 -13 67 -42 67 -25 0 -40 -35
-32 -75 l6 -35 -210 0 -210 0 5 40 c6 44 -8 70 -38 70 -24 0 -39 -29 -39 -74
l0 -36 -50 0 c-29 0 -50 5 -50 11 0 6 5 54 11 107 16 139 29 158 124 188 58
18 73 17 108 -10z"/>
</g>
</svg>
