<?xml version="1.0" standalone="no"?>
<!DOCTYPE svg PUBLIC "-//W3C//DTD SVG 20010904//EN"
 "http://www.w3.org/TR/2001/REC-SVG-20010904/DTD/svg10.dtd">
<svg version="1.0" xmlns="http://www.w3.org/2000/svg"
 width="256.000000pt" height="256.000000pt" viewBox="0 0 256.000000 256.000000"
 preserveAspectRatio="xMidYMid meet">

<g transform="translate(0.000000,256.000000) scale(0.100000,-0.100000)"
fill="#000000" stroke="none">
<path d="M620 2549 c-25 -5 -77 -24 -116 -43 -178 -88 -274 -239 -289 -453 -3
-48 -11 -111 -17 -140 -9 -45 -8 -56 9 -90 12 -23 36 -47 60 -60 36 -21 41
-28 46 -71 13 -114 95 -242 193 -302 28 -18 34 -28 34 -56 0 -30 -5 -36 -48
-58 -27 -14 -85 -34 -129 -45 -107 -28 -146 -45 -192 -86 -69 -63 -75 -89
-126 -546 -28 -252 -44 -431 -40 -457 7 -50 53 -108 102 -128 23 -10 84 -14
212 -14 175 0 181 1 192 22 19 35 -18 58 -92 58 l-58 0 4 48 c3 26 12 186 21
356 14 274 14 310 1 324 -37 36 -67 -14 -67 -110 l0 -61 -93 8 c-50 4 -94 9
-96 11 -6 6 28 302 40 351 21 80 99 132 241 158 33 6 36 4 92 -70 32 -41 67
-80 77 -85 26 -14 61 -12 84 6 20 15 20 13 25 -82 5 -101 17 -125 54 -111 13
5 16 23 16 107 0 99 6 114 30 85 14 -17 53 -20 79 -6 9 5 44 44 77 86 57 73
60 76 93 70 53 -10 154 -44 174 -59 16 -12 16 -16 2 -50 -9 -21 -26 -123 -37
-227 -12 -104 -25 -189 -29 -189 -11 0 -19 41 -19 102 0 46 -4 59 -19 68 -24
12 -48 4 -53 -18 -2 -9 4 -161 13 -337 10 -176 18 -332 18 -347 l1 -28 -216 0
c-129 0 -223 -4 -235 -10 -23 -13 -25 -55 -3 -64 9 -3 231 -6 494 -6 511 0
511 0 495 48 -7 24 -33 32 -102 32 -29 0 -53 5 -53 10 0 22 30 559 34 627 5
57 2 75 -10 87 -18 18 -23 19 -44 6 -10 -6 -17 -33 -20 -87 l-5 -78 -85 3
c-47 1 -90 4 -96 6 -12 5 16 282 36 356 16 61 79 116 150 133 25 6 26 4 37
-63 11 -73 41 -131 79 -157 53 -35 162 -11 249 55 l39 30 36 -28 c45 -35 84
-55 138 -70 102 -27 174 44 196 193 7 43 9 47 29 41 75 -23 115 -52 143 -105
14 -29 63 -374 53 -383 -2 -2 -45 -7 -95 -11 l-92 -7 -3 81 c-3 59 -8 85 -19
91 -20 13 -23 12 -43 -3 -17 -12 -17 -29 -3 -302 9 -160 18 -320 21 -357 l5
-68 -209 0 c-217 0 -261 -6 -261 -38 0 -41 11 -42 357 -42 366 0 377 2 426 59
54 65 54 74 8 488 -23 208 -47 405 -52 437 -27 151 -95 205 -331 262 -65 15
-118 32 -118 36 0 4 60 8 134 8 198 0 187 -19 207 366 7 127 9 239 6 248 -7
17 -52 22 -61 7 -3 -4 -12 -125 -21 -267 -9 -142 -18 -265 -20 -271 -3 -10
-38 -13 -127 -12 l-123 0 30 22 c79 59 127 114 162 184 34 68 37 82 41 181 4
103 3 108 -20 130 -18 16 -44 25 -99 32 -143 18 -254 69 -361 167 -44 41 -77
63 -92 63 -13 0 -45 -18 -71 -39 -26 -22 -74 -49 -106 -61 -33 -12 -64 -30
-70 -41 -7 -14 -9 -81 -7 -192 3 -153 6 -178 27 -222 31 -70 92 -145 145 -180
25 -16 46 -33 46 -37 0 -14 -217 -9 -228 5 -10 12 -42 484 -42 617 0 85 20
182 49 239 22 42 84 101 107 101 8 0 38 23 66 51 79 79 120 94 258 94 108 0
119 -2 182 -32 143 -67 228 -182 261 -349 11 -54 15 -59 40 -62 37 -4 43 16
29 97 -46 271 -316 465 -586 423 -100 -15 -155 -41 -225 -106 -34 -31 -67 -56
-74 -56 -22 0 -86 -59 -112 -104 -72 -123 -80 -207 -55 -606 10 -176 24 -328
30 -339 23 -44 48 -51 177 -51 68 0 123 -4 123 -8 0 -5 -64 -25 -142 -45 -85
-22 -157 -47 -180 -62 l-38 -25 -37 24 c-21 14 -83 37 -137 52 -55 14 -119 35
-143 47 -40 20 -43 24 -43 61 0 37 5 44 46 71 87 58 158 175 170 281 6 49 10
55 43 72 54 28 84 77 77 127 -4 22 -11 87 -17 145 -18 189 -62 294 -163 387
-125 115 -292 164 -456 132z m231 -85 c76 -23 128 -56 188 -119 73 -77 111
-164 118 -265 l6 -79 -31 9 c-17 4 -35 11 -40 14 -11 7 -27 47 -42 102 -5 23
-17 47 -26 55 -12 9 -82 13 -297 13 l-282 1 -22 -23 c-12 -13 -25 -42 -28 -65
-10 -57 -38 -94 -76 -99 l-32 -5 6 79 c9 129 89 264 199 334 96 61 246 81 359
48z m-116 -349 c72 0 154 3 183 7 38 5 54 4 56 -5 2 -7 9 -31 15 -55 7 -24 28
-60 47 -81 34 -38 34 -39 34 -138 0 -229 -57 -341 -209 -411 -46 -22 -71 -26
-136 -26 -101 0 -173 30 -244 103 -73 75 -92 135 -99 298 l-5 133 36 39 c20
22 41 59 48 83 6 24 13 49 15 55 2 10 20 11 66 5 35 -4 122 -7 193 -7z m1099
-184 c76 -45 166 -77 264 -92 l82 -12 0 -36 c0 -63 -19 -152 -42 -199 -30 -64
-98 -128 -166 -160 -83 -38 -192 -38 -279 2 -75 34 -134 94 -171 174 -24 52
-27 71 -30 204 -4 137 -3 148 14 154 50 16 100 41 131 66 l35 28 53 -48 c30
-26 79 -62 109 -81z m-1524 -58 c0 -55 0 -56 -20 -38 -24 22 -26 52 -3 77 9
10 18 18 20 18 1 0 3 -25 3 -57z m870 9 c0 -27 -15 -52 -32 -52 -4 0 -8 23 -8
50 0 48 1 50 20 40 13 -7 20 -21 20 -38z m-340 -572 c0 -18 -17 -40 -59 -77
l-58 -52 -56 57 c-32 32 -57 66 -57 77 0 19 7 20 115 20 l115 0 0 -25z m1110
-22 c0 -53 24 -88 60 -88 29 0 25 -16 -13 -44 -78 -60 -183 -73 -267 -35 -68
31 -114 79 -75 79 9 0 27 11 40 25 19 18 25 35 25 67 l0 43 115 0 115 0 0 -47z
m-1021 -84 c4 -4 -77 -112 -91 -120 -5 -4 -20 4 -34 17 l-24 23 51 52 c46 46
55 52 73 42 12 -6 23 -12 25 -14z m-307 -31 l48 -47 -22 -23 c-12 -13 -25 -23
-29 -23 -4 0 -29 27 -55 61 -37 48 -44 63 -33 70 26 16 43 9 91 -38z m970 -49
c26 -25 71 -56 100 -69 l51 -24 -34 -20 c-42 -26 -97 -37 -118 -24 -9 5 -23
25 -33 44 -18 37 -34 139 -22 139 4 0 29 -20 56 -46z m538 9 c0 -84 -37 -153
-81 -153 -23 0 -119 39 -119 49 0 3 22 16 48 28 27 12 68 42 93 67 24 25 47
45 52 46 4 0 7 -17 7 -37z m-1871 -569 l54 -6 -6 -107 c-4 -58 -10 -166 -13
-239 l-7 -132 -77 0 c-68 0 -80 3 -104 25 -32 29 -33 69 -11 273 25 221 19
205 68 199 23 -3 66 -9 96 -13z m1115 0 l48 -6 -6 -67 c-3 -36 -9 -144 -12
-238 l-7 -173 -74 0 c-85 0 -107 9 -129 51 -14 28 -13 47 8 240 l22 210 51 -6
c27 -3 72 -8 99 -11z m1070 -16 c13 -77 36 -312 36 -363 0 -48 -4 -60 -26 -80
-24 -22 -36 -25 -104 -25 l-77 0 -6 113 c-4 61 -10 169 -13 239 l-7 126 59 7
c32 3 66 8 74 9 48 11 59 6 64 -26z"/>
</g>
</svg>
